<svg width="480" height="480" viewBox="0 0 480 480" fill="none" xmlns="http://www.w3.org/2000/svg">
<rect width="480" height="480" fill="black"/>
<path d="M84.7188 279.617L112.551 266.434H114.016V276.688C114.016 289.773 117.531 300.369 124.562 308.475C133.254 318.533 144.631 323.562 158.693 323.562C172.756 323.562 184.133 318.533 192.824 308.475C199.855 300.369 203.371 289.773 203.371 276.688V152.469H119.436V151.004L131.301 125.809H232.668V276.688C232.668 297.781 226.076 315.115 212.893 328.689C199.025 342.85 180.959 349.93 158.693 349.93C136.721 349.93 118.654 342.85 104.494 328.689C91.3105 315.604 84.7188 299.246 84.7188 279.617ZM237.262 352.859V133.133L252.789 125.809H308.307C330.572 125.809 348.639 132.889 362.506 147.049C375.689 160.525 382.281 177.859 382.281 199.051C382.281 220.34 375.689 237.674 362.506 251.053C354.693 258.963 345.562 264.676 335.113 268.191L385.797 340.701L360.016 352.859H358.551L302.154 272.293H266.559V339.676L238.727 352.859H237.262ZM266.559 245.926H308.307C321.1 245.926 332.477 240.896 342.438 230.838C349.469 223.709 352.984 213.113 352.984 199.051C352.984 185.965 349.469 175.369 342.438 167.264C333.746 157.205 322.369 152.176 308.307 152.176H266.559V245.926Z" fill="white"/>
</svg>
